<svg width="201" height="47" viewBox="0 0 201 47" fill="none" xmlns="http://www.w3.org/2000/svg">
<g id="Group 1">
<g id="Group">
<path id="Vector" d="M41.3146 17.7298C41.1314 16.7101 40.8938 15.7008 40.6029 14.7064C40.5616 14.5643 40.4926 14.4318 40.4 14.3164C40.3073 14.201 40.1927 14.105 40.0629 14.034C39.933 13.9629 39.7904 13.9182 39.6433 13.9023C39.4961 13.8865 39.3472 13.8998 39.2052 13.9416C39.0632 13.983 38.9307 14.0521 38.8154 14.1447C38.7001 14.2373 38.6041 14.3518 38.5331 14.4815C38.462 14.6113 38.4173 14.7537 38.4013 14.9008C38.3854 15.0478 38.3986 15.1965 38.4402 15.3385C38.7083 16.2561 38.9269 17.1875 39.0952 18.1285C39.1485 18.4224 39.3163 18.6832 39.5617 18.8536C39.8071 19.024 40.11 19.0902 40.4042 19.0377C40.5499 19.0116 40.689 18.957 40.8136 18.8772C40.9382 18.7973 41.0459 18.6937 41.1304 18.5723C41.215 18.4508 41.2748 18.3139 41.3064 18.1694C41.338 18.0248 41.3408 17.8755 41.3146 17.7298ZM31.2912 38.0961C31.1804 37.998 31.0514 37.9226 30.9115 37.8744C30.7716 37.8262 30.6235 37.806 30.4758 37.8149C30.328 37.8239 30.1835 37.8619 30.0505 37.9267C29.9174 37.9916 29.7985 38.082 29.7004 38.1928C27.4159 40.7701 24.5398 42.8391 21.3839 44.1723C21.2475 44.2296 21.1238 44.3133 21.0198 44.4185C20.9159 44.5237 20.8337 44.6484 20.778 44.7854C20.7223 44.9224 20.6942 45.069 20.6953 45.2169C20.6963 45.3648 20.7266 45.511 20.7842 45.6472C20.8416 45.7836 20.9253 45.9075 21.0307 46.0115C21.136 46.1155 21.2609 46.1978 21.3981 46.2534C21.5353 46.3091 21.6821 46.3372 21.8302 46.336C21.9783 46.3348 22.1247 46.3045 22.261 46.2466C25.7254 44.7834 28.882 42.5154 31.3879 39.6857C31.4861 39.575 31.5616 39.4461 31.6099 39.3063C31.6582 39.1664 31.6784 39.0185 31.6694 38.8708C31.6604 38.7232 31.6224 38.5787 31.5575 38.4458C31.4926 38.3129 31.4021 38.194 31.2912 38.0961ZM37.0598 17.0414C37.0588 17.039 37.0588 17.036 37.0588 17.0337C35.9939 12.5894 33.7285 8.50382 30.5052 5.21868C28.8062 3.48593 26.8681 2.00505 24.7496 0.821041C24.4894 0.683872 24.1859 0.653802 23.9038 0.737247C23.6218 0.820693 23.3835 1.01104 23.2399 1.26767C23.0963 1.52429 23.0588 1.82686 23.1353 2.11079C23.2118 2.39471 23.3962 2.6375 23.6493 2.78732C25.5805 3.86671 27.3474 5.21656 28.8963 6.7959C31.8328 9.78934 33.8975 13.5115 34.867 17.5581V17.5615C35.1907 18.9164 35.391 20.298 35.4653 21.6891C35.473 21.8368 35.5097 21.9815 35.5734 22.115C35.6371 22.2485 35.7264 22.3681 35.8364 22.4671C35.9464 22.566 36.0747 22.6424 36.2142 22.6917C36.3537 22.741 36.5015 22.7624 36.6493 22.7545C36.9477 22.7387 37.2277 22.605 37.4275 22.3829C37.6274 22.1608 37.7309 21.8684 37.7151 21.57C37.6343 20.0438 37.415 18.528 37.0598 17.0414Z" fill="white"/>
<path id="Vector_2" d="M12.439 1.64529C9.7989 1.64153 7.18146 2.13218 4.72209 3.09183C4.44369 3.2004 4.21984 3.41509 4.09979 3.68865C3.97974 3.96221 3.97331 4.27224 4.08193 4.55054C4.19055 4.82883 4.40531 5.0526 4.67897 5.17261C4.95263 5.29262 5.26277 5.29904 5.54117 5.19046C7.73961 4.33312 10.0792 3.89484 12.439 3.89828C22.9343 3.89828 31.4736 12.4338 31.4736 22.9264C31.4736 30.4731 26.9974 37.3151 20.0692 40.3589C19.9337 40.4182 19.8112 40.5036 19.7088 40.6103C19.6064 40.717 19.5261 40.8428 19.4724 40.9806C19.4187 41.1184 19.3927 41.2654 19.396 41.4132C19.3992 41.5611 19.4316 41.7068 19.4912 41.8421C19.5791 42.0425 19.7234 42.213 19.9066 42.3327C20.0898 42.4525 20.3039 42.5163 20.5228 42.5165C20.6752 42.5165 20.8286 42.4842 20.9763 42.4198C28.7233 39.018 33.7275 31.3666 33.7275 22.926C33.7271 11.1923 24.1776 1.64529 12.439 1.64529Z" fill="white"/>
<path id="Vector_3" d="M20.2347 38.3216C26.075 35.3552 29.7032 29.4553 29.7032 22.9254C29.7032 13.409 21.9586 5.66724 12.4388 5.66724C8.1329 5.66724 4.00548 7.26713 0.817527 10.1729C0.708143 10.2725 0.619466 10.3927 0.556562 10.5266C0.493657 10.6605 0.457757 10.8055 0.450913 10.9532C0.444068 11.101 0.466413 11.2487 0.516672 11.3878C0.56693 11.5269 0.644116 11.6548 0.743822 11.7641C0.843434 11.8735 0.963635 11.9622 1.09755 12.0251C1.23147 12.088 1.37648 12.1239 1.52428 12.1307C1.67209 12.1375 1.81979 12.1152 1.95895 12.0649C2.09811 12.0147 2.226 11.9375 2.3353 11.8378C5.10737 9.31176 8.69585 7.92023 12.4384 7.92023C20.7149 7.92023 27.449 14.6515 27.449 22.9257C27.449 28.6032 24.2944 33.733 19.2132 36.313C18.9874 36.4279 18.807 36.6154 18.7009 36.8453C18.5948 37.0753 18.5692 37.3342 18.6283 37.5804C18.6874 37.8267 18.8277 38.0458 19.0266 38.2026C19.2255 38.3594 19.4715 38.4446 19.7248 38.4446C19.902 38.4438 20.0766 38.4017 20.2347 38.3216Z" fill="white"/>
<path id="Vector_4" d="M19.1926 34.3066C23.1937 31.9253 25.6786 27.5647 25.6786 22.926C25.6786 15.6279 19.7393 9.69141 12.4389 9.69141C7.93194 9.69141 3.77449 11.9571 1.31692 15.7516C1.23433 15.8757 1.17722 16.015 1.14889 16.1614C1.12057 16.3077 1.12159 16.4582 1.1519 16.6042C1.18221 16.7502 1.2412 16.8886 1.32547 17.0116C1.40973 17.1346 1.51758 17.2397 1.64276 17.3207C1.76794 17.4017 1.90797 17.457 2.05472 17.4835C2.20146 17.51 2.35201 17.5071 2.49763 17.475C2.64325 17.4429 2.78105 17.3822 2.90303 17.2965C3.025 17.2107 3.12874 17.1016 3.20821 16.9755C5.24857 13.8247 8.69899 11.9437 12.4386 11.9437C18.4956 11.9437 23.4241 16.8701 23.4241 22.926C23.4241 26.7749 21.3604 30.3944 18.0387 32.3717C17.9116 32.4474 17.8007 32.5474 17.7123 32.666C17.6239 32.7846 17.5598 32.9194 17.5236 33.0628C17.4873 33.2062 17.4797 33.3553 17.5011 33.5016C17.5226 33.6479 17.5727 33.7886 17.6485 33.9156C17.7483 34.0834 17.8901 34.2223 18.0599 34.3186C18.2297 34.415 18.4218 34.4654 18.617 34.465C18.8128 34.465 19.0116 34.4137 19.1926 34.3066Z" fill="white"/>
<path id="Vector_5" d="M19.4007 22.9261C19.4007 24.2906 19.0045 25.6128 18.2534 26.7493C18.1414 26.919 18.0773 27.1159 18.0681 27.3191C18.0589 27.5222 18.1048 27.724 18.2011 27.9032C18.2973 28.0824 18.4403 28.2321 18.6148 28.3367C18.7893 28.4412 18.9888 28.4966 19.1922 28.4969C19.3788 28.4973 19.5626 28.4513 19.7269 28.3629C19.8912 28.2746 20.0309 28.1467 20.1334 27.9908C21.1271 26.4888 21.656 24.7273 21.6541 22.9264C21.6541 17.8467 17.5204 13.7141 12.4388 13.7141C8.94537 13.7141 5.69372 15.7464 4.15528 18.8912C4.0332 19.1584 4.02032 19.4626 4.11936 19.7392C4.21841 20.0157 4.42156 20.2427 4.68554 20.3717C4.94952 20.5007 5.25345 20.5215 5.5326 20.4298C5.81174 20.3381 6.04403 20.1411 6.17997 19.8807C7.34356 17.503 9.79981 15.9664 12.4391 15.9664C16.2781 15.9661 19.4007 19.0886 19.4007 22.9261Z" fill="white"/>
<path id="Vector_6" d="M12.4391 17.7366C11.1525 17.736 9.91176 18.2141 8.95837 19.0778C8.74456 19.2803 8.61855 19.5585 8.60731 19.8527C8.59608 20.147 8.70051 20.4339 8.89826 20.6522C9.09601 20.8704 9.37137 21.0026 9.66539 21.0205C9.95942 21.0383 10.2488 20.9404 10.4715 20.7477C11.0103 20.2593 11.7118 19.9888 12.4391 19.9889C14.059 19.9889 15.3766 21.3061 15.3766 22.9257C15.3766 23.0736 15.4058 23.2201 15.4625 23.3567C15.5191 23.4934 15.6022 23.6175 15.7069 23.7221C15.8115 23.8266 15.9358 23.9096 16.0726 23.9661C16.2093 24.0226 16.3559 24.0516 16.5039 24.0515C16.6518 24.0515 16.7982 24.0224 16.9348 23.9658C17.0714 23.9092 17.1956 23.8263 17.3001 23.7217C17.4047 23.6172 17.4876 23.4931 17.5442 23.3565C17.6007 23.2199 17.6298 23.0735 17.6298 22.9257C17.6298 20.0649 15.3013 17.7366 12.4391 17.7366Z" fill="white"/>
</g>
<path id="Vector_7" d="M51.224 24.5808C52.2875 25.9374 53.6005 27.0695 55.4341 27.0695C56.6787 27.0695 57.5612 26.3461 57.5612 25.0776C57.5612 23.653 56.52 23.1316 54.7544 22.3175C52.3329 21.2097 50.9295 19.8518 50.9295 17.7025C50.9295 14.9651 53.1926 13.3589 55.6822 13.3589C57.7196 13.3589 58.9419 13.947 59.6202 14.5571L59.734 17.9282H59.4398C58.3536 16.7534 57.1313 15.9833 55.7506 15.9833C54.596 15.9833 53.8036 16.48 53.8036 17.5668C53.8036 18.585 54.7768 19.1507 57.0172 20.1919C59.2814 21.233 60.7748 22.4995 60.7748 25.0109C60.7748 27.861 58.6928 29.8303 55.5919 29.8303C53.4421 29.8303 51.7889 29.1062 50.8161 28.291L50.9969 24.5815H51.224V24.5808ZM73.9935 23.9241C73.9935 27.6796 71.5039 29.8299 68.4487 29.8299C66.8862 29.8299 65.71 29.3775 64.8949 28.4504V34.6263H61.9077V18.3366H64.8949V19.5131C65.6873 18.6306 66.8412 18.0196 68.4937 18.0196C71.662 18.0196 73.9935 20.4626 73.9935 23.9241ZM64.7588 23.9241C64.7588 25.7343 66.0265 27.0695 67.8824 27.0695C69.7387 27.0695 71.006 25.7343 71.006 23.9241C71.006 22.1145 69.7387 20.7796 67.8824 20.7796C66.0268 20.7796 64.7588 22.1145 64.7588 23.9241ZM85.5144 25.8257L85.4016 28.6534C83.9529 29.4902 82.4591 29.8299 80.9657 29.8299C77.5703 29.8299 74.8996 27.2286 74.8996 23.8344C74.8996 20.5539 77.4346 18.0196 80.6706 18.0196C84.4735 18.0196 86.3298 20.8253 86.3298 23.8344V24.7165H77.7511C78.0909 26.4131 79.4266 27.2952 81.1688 27.2952C82.5272 27.2952 83.8625 26.9785 85.1979 25.8257H85.5144ZM77.8191 22.6802H83.3419C83.1835 21.2994 82.0973 20.3269 80.6709 20.3269C79.3579 20.3269 78.227 21.164 77.8191 22.6802ZM87.2349 23.9241C87.2349 20.6666 89.7245 18.0196 92.8477 18.0196C94.3195 18.0196 95.5644 18.562 96.1978 19.3548V18.3366H99.1849V29.5129H96.1978V28.4947C95.3827 29.2645 94.4549 29.8299 92.6673 29.8299C89.996 29.8299 87.2349 27.6123 87.2349 23.9241ZM96.3335 23.9241C96.3335 22.2045 95.1789 20.7796 93.278 20.7796C91.3763 20.7796 90.2227 22.2045 90.2227 23.9241C90.2227 25.6447 91.376 27.0695 93.278 27.0695C95.1789 27.0695 96.3335 25.6447 96.3335 23.9241ZM100.634 13.2229H103.622V22.9286L107.514 18.3363H111.068L106.677 23.517L111.384 29.5129H107.56L103.622 24.3321V29.5129H100.634V13.2229ZM124.762 23.223C124.762 27.2726 122.43 29.8299 118.402 29.8299C114.373 29.8299 112.041 27.2726 112.041 23.223V13.6756H115.256V23.494C115.256 26.3001 116.795 27.1152 118.402 27.1152C120.009 27.1152 121.549 26.3001 121.549 23.494V13.6756H124.763V23.223H124.762ZM138.024 23.9241C138.024 27.6796 135.535 29.8299 132.479 29.8299C130.918 29.8299 129.741 29.3775 128.926 28.4504V34.6263H125.938V18.3366H128.926V19.5131C129.718 18.6306 130.873 18.0196 132.525 18.0196C135.693 18.0196 138.024 20.4626 138.024 23.9241ZM128.79 23.9241C128.79 25.7343 130.058 27.0695 131.914 27.0695C133.77 27.0695 135.037 25.7343 135.037 23.9241C135.037 22.1145 133.77 20.7796 131.914 20.7796C130.058 20.7796 128.79 22.1145 128.79 23.9241ZM145.743 13.6743L152.759 29.5126H149.637L148.46 26.7978H142.077L140.9 29.5126H137.777L144.793 13.6743H145.743ZM143.208 24.0824H147.328L145.268 19.2864L143.208 24.0824ZM152.738 18.3366H153.983V17.1141C153.983 14.3984 155.997 13.3585 157.694 13.3585C158.554 13.3585 159.076 13.5169 159.664 13.834L159.777 16.4583H159.506C159.098 16.0513 158.51 15.8699 158.103 15.8699C157.423 15.8699 156.971 16.3 156.971 17.0681V18.3363H158.781V20.8696H156.971V29.5126H153.983V20.8696H152.738V18.3366ZM167.54 21.6851C167.088 21.1423 166.34 20.78 165.572 20.78C164.281 20.78 163.082 21.5724 163.082 23.427V29.5129H160.094V18.3366H163.082V19.4448C163.783 18.541 164.869 18.0196 165.956 18.0196C166.816 18.0196 167.292 18.2009 167.767 18.541L167.97 21.6851H167.54ZM170.619 13.0415C171.66 13.0415 172.52 13.9013 172.52 14.9421C172.52 15.9603 171.66 16.797 170.619 16.797C169.6 16.797 168.762 15.9603 168.762 14.9421C168.762 13.9016 169.6 13.0415 170.619 13.0415ZM169.125 18.3366H172.113V29.5129H169.125V18.3366ZM182.456 28.9475C181.619 29.5586 180.578 29.8299 179.197 29.8299C176.028 29.8299 173.131 27.6566 173.131 23.9241C173.131 20.1912 176.028 18.0196 179.197 18.0196C180.578 18.0196 181.619 18.2909 182.456 18.902L182.569 22.0468H182.252C181.234 21.1643 180.307 20.78 179.197 20.78C177.318 20.78 176.119 22.1135 176.119 23.9244C176.119 25.735 177.318 27.0702 179.197 27.0702C180.307 27.0702 181.234 26.6848 182.252 25.8033H182.569L182.456 28.9475ZM183.61 23.9241C183.61 20.6666 186.1 18.0196 189.224 18.0196C190.693 18.0196 191.939 18.562 192.574 19.3548V18.3366H195.56V29.5129H192.574V28.4947C191.758 29.2645 190.831 29.8299 189.042 29.8299C186.371 29.8299 183.61 27.6123 183.61 23.9241ZM192.709 23.9241C192.709 22.2045 191.554 20.7796 189.654 20.7796C187.752 20.7796 186.599 22.2045 186.599 23.9241C186.599 25.6447 187.752 27.0695 189.654 27.0695C191.554 27.0695 192.709 25.6447 192.709 23.9241ZM198.684 26.3458C199.153 26.3461 199.601 26.5322 199.932 26.8631C200.263 27.194 200.449 27.6427 200.45 28.1107C200.45 29.0602 199.659 29.8299 198.684 29.8299C198.458 29.8301 198.235 29.7858 198.026 29.6994C197.817 29.6131 197.628 29.4865 197.468 29.3268C197.308 29.1671 197.181 28.9775 197.095 28.7688C197.008 28.5602 196.964 28.3365 196.964 28.1107C196.964 27.1369 197.733 26.3458 198.684 26.3458Z" fill="white"/>
</g>
</svg>
