<svg width="200" height="47" viewBox="0 0 200 47" fill="none" xmlns="http://www.w3.org/2000/svg">
<path d="M40.8649 17.7298C40.6817 16.7101 40.4441 15.7008 40.1532 14.7064C40.1119 14.5643 40.0429 14.4318 39.9502 14.3164C39.8575 14.201 39.743 14.105 39.6132 14.034C39.4833 13.9629 39.3407 13.9182 39.1935 13.9023C39.0464 13.8865 38.8975 13.8998 38.7555 13.9416C38.6135 13.983 38.481 14.0521 38.3657 14.1447C38.2503 14.2373 38.1544 14.3518 38.0833 14.4815C38.0123 14.6113 37.9675 14.7537 37.9516 14.9008C37.9356 15.0478 37.9488 15.1965 37.9904 15.3385C38.2585 16.2561 38.4772 17.1875 38.6454 18.1285C38.6988 18.4224 38.8665 18.6832 39.1119 18.8536C39.3573 19.024 39.6603 19.0902 39.9544 19.0377C40.1001 19.0116 40.2393 18.957 40.3639 18.8772C40.4885 18.7973 40.5961 18.6937 40.6807 18.5723C40.7652 18.4508 40.825 18.3139 40.8566 18.1694C40.8882 18.0248 40.891 17.8755 40.8649 17.7298ZM30.8415 38.0961C30.7307 37.998 30.6017 37.9226 30.4617 37.8744C30.3218 37.8262 30.1738 37.806 30.026 37.8149C29.8783 37.8239 29.7338 37.8619 29.6007 37.9267C29.4677 37.9916 29.3488 38.082 29.2507 38.1928C26.9662 40.7701 24.0901 42.8391 20.9341 44.1723C20.7978 44.2296 20.6741 44.3133 20.5701 44.4185C20.4661 44.5237 20.384 44.6484 20.3283 44.7854C20.2726 44.9224 20.2444 45.069 20.2455 45.2169C20.2466 45.3648 20.2768 45.511 20.3345 45.6472C20.3919 45.7836 20.4756 45.9075 20.581 46.0115C20.6863 46.1155 20.8111 46.1978 20.9483 46.2534C21.0855 46.3091 21.2324 46.3372 21.3805 46.336C21.5286 46.3348 21.6749 46.3045 21.8112 46.2466C25.2757 44.7834 28.4323 42.5154 30.9382 39.6857C31.0364 39.575 31.1118 39.4461 31.1601 39.3063C31.2084 39.1664 31.2287 39.0185 31.2197 38.8708C31.2107 38.7232 31.1727 38.5787 31.1078 38.4458C31.0429 38.3129 30.9524 38.194 30.8415 38.0961ZM36.6101 17.0414C36.6091 17.039 36.6091 17.036 36.6091 17.0337C35.5442 12.5894 33.2787 8.50382 30.0554 5.21868C28.3565 3.48593 26.4183 2.00505 24.2998 0.821041C24.0397 0.683872 23.7361 0.653802 23.4541 0.737247C23.172 0.820693 22.9338 1.01104 22.7902 1.26767C22.6466 1.52429 22.609 1.82686 22.6855 2.11079C22.762 2.39471 22.9465 2.6375 23.1996 2.78732C25.1308 3.86671 26.8977 5.21656 28.4466 6.7959C31.3831 9.78934 33.4478 13.5115 34.4173 17.5581V17.5615C34.741 18.9164 34.9412 20.298 35.0156 21.6891C35.0233 21.8368 35.06 21.9815 35.1237 22.115C35.1873 22.2485 35.2767 22.3681 35.3867 22.4671C35.4966 22.566 35.625 22.6424 35.7645 22.6917C35.904 22.741 36.0518 22.7624 36.1995 22.7545C36.498 22.7387 36.7779 22.605 36.9778 22.3829C37.1777 22.1608 37.2811 21.8684 37.2654 21.57C37.1846 20.0438 36.9653 18.528 36.6101 17.0414Z" fill="#DD3E14"/>
<path d="M11.9893 1.64529C9.34921 1.64153 6.73177 2.13218 4.2724 3.09183C3.994 3.2004 3.77015 3.41509 3.6501 3.68865C3.53005 3.96221 3.52362 4.27224 3.63224 4.55054C3.74086 4.82883 3.95562 5.0526 4.22928 5.17261C4.50294 5.29262 4.81308 5.29904 5.09148 5.19046C7.28991 4.33312 9.6295 3.89484 11.9893 3.89828C22.4846 3.89828 31.024 12.4338 31.024 22.9264C31.024 30.4731 26.5477 37.3151 19.6195 40.3589C19.484 40.4182 19.3616 40.5036 19.2591 40.6103C19.1567 40.717 19.0764 40.8428 19.0227 40.9806C18.969 41.1184 18.943 41.2654 18.9463 41.4132C18.9495 41.5611 18.9819 41.7068 19.0416 41.8421C19.1294 42.0425 19.2738 42.213 19.4569 42.3327C19.6401 42.4525 19.8542 42.5163 20.0731 42.5165C20.2255 42.5165 20.3789 42.4842 20.5266 42.4198C28.2736 39.018 33.2778 31.3666 33.2778 22.926C33.2774 11.1923 23.7279 1.64529 11.9893 1.64529Z" fill="#DD3E14"/>
<path d="M19.785 38.3216C25.6253 35.3552 29.2535 29.4553 29.2535 22.9254C29.2535 13.409 21.5089 5.66724 11.989 5.66724C7.68319 5.66724 3.55577 7.26713 0.36782 10.1729C0.258436 10.2725 0.169759 10.3927 0.106855 10.5266C0.04395 10.6605 0.00805015 10.8055 0.00120573 10.9532C-0.00563868 11.101 0.0167064 11.2487 0.0669647 11.3878C0.117223 11.5269 0.194409 11.6548 0.294115 11.7641C0.393727 11.8735 0.513928 11.9622 0.647845 12.0251C0.781763 12.088 0.92677 12.1239 1.07458 12.1307C1.22238 12.1375 1.37009 12.1152 1.50925 12.0649C1.64841 12.0147 1.77629 11.9375 1.88559 11.8378C4.65766 9.31176 8.24615 7.92023 11.9887 7.92023C20.2652 7.92023 26.9993 14.6515 26.9993 22.9257C26.9993 28.6032 23.8447 33.733 18.7635 36.313C18.5377 36.4279 18.3573 36.6154 18.2512 36.8453C18.1451 37.0753 18.1195 37.3342 18.1786 37.5804C18.2377 37.8267 18.378 38.0458 18.5769 38.2026C18.7758 38.3594 19.0218 38.4446 19.2751 38.4446C19.4523 38.4438 19.6269 38.4017 19.785 38.3216Z" fill="#DD3E14"/>
<path d="M18.743 34.3066C22.744 31.9253 25.2289 27.5647 25.2289 22.926C25.2289 15.6279 19.2896 9.69141 11.9892 9.69141C7.48227 9.69141 3.32483 11.9571 0.867246 15.7516C0.784662 15.8757 0.72755 16.015 0.699223 16.1614C0.670897 16.3077 0.671918 16.4582 0.702228 16.6042C0.732539 16.7502 0.791536 16.8886 0.875797 17.0116C0.960059 17.1346 1.06791 17.2397 1.19309 17.3207C1.31827 17.4017 1.4583 17.457 1.60505 17.4835C1.75179 17.51 1.90234 17.5071 2.04797 17.475C2.19359 17.4429 2.33138 17.3822 2.45336 17.2965C2.57533 17.2107 2.67907 17.1016 2.75854 16.9755C4.79891 13.8247 8.24932 11.9437 11.9889 11.9437C18.046 11.9437 22.9745 16.8701 22.9745 22.926C22.9745 26.7749 20.9107 30.3944 17.5891 32.3717C17.462 32.4474 17.3511 32.5474 17.2627 32.666C17.1743 32.7846 17.1101 32.9194 17.0739 33.0628C17.0377 33.2062 17.03 33.3553 17.0515 33.5016C17.0729 33.6479 17.123 33.7886 17.1989 33.9156C17.2986 34.0834 17.4404 34.2223 17.6102 34.3186C17.7801 34.415 17.9721 34.4654 18.1673 34.465C18.3631 34.465 18.5619 34.4137 18.743 34.3066Z" fill="#DD3E14"/>
<path d="M18.9509 22.9261C18.9509 24.2906 18.5547 25.6128 17.8037 26.7493C17.6916 26.919 17.6276 27.1159 17.6184 27.3191C17.6091 27.5222 17.6551 27.724 17.7513 27.9032C17.8476 28.0824 17.9905 28.2321 18.165 28.3367C18.3395 28.4412 18.5391 28.4966 18.7425 28.4969C18.9291 28.4973 19.1128 28.4513 19.2771 28.3629C19.4414 28.2746 19.5811 28.1467 19.6836 27.9908C20.6773 26.4888 21.2063 24.7273 21.2044 22.9264C21.2044 17.8467 17.0706 13.7141 11.9891 13.7141C8.49562 13.7141 5.24397 15.7464 3.70552 18.8912C3.58345 19.1584 3.57056 19.4626 3.66961 19.7392C3.76866 20.0157 3.97181 20.2427 4.23579 20.3717C4.49976 20.5007 4.8037 20.5215 5.08284 20.4298C5.36199 20.3381 5.59427 20.1411 5.73022 19.8807C6.89381 17.503 9.35005 15.9664 11.9894 15.9664C15.8283 15.9661 18.9509 19.0886 18.9509 22.9261Z" fill="#DD3E14"/>
<path d="M11.9894 17.7366C10.7028 17.736 9.462 18.2141 8.50862 19.0778C8.2948 19.2803 8.16879 19.5585 8.15756 19.8527C8.14632 20.147 8.25076 20.4339 8.44851 20.6522C8.64626 20.8704 8.92162 21.0026 9.21564 21.0205C9.50967 21.0383 9.799 20.9404 10.0217 20.7477C10.5606 20.2593 11.262 19.9888 11.9894 19.9889C13.6092 19.9889 14.9269 21.3061 14.9269 22.9257C14.9269 23.0736 14.956 23.2201 15.0127 23.3567C15.0694 23.4934 15.1524 23.6175 15.2571 23.7221C15.3618 23.8266 15.4861 23.9096 15.6228 23.9661C15.7596 24.0226 15.9061 24.0516 16.0541 24.0515C16.202 24.0515 16.3484 24.0224 16.4851 23.9658C16.6217 23.9092 16.7458 23.8263 16.8504 23.7217C16.9549 23.6172 17.0378 23.4931 17.0944 23.3565C17.151 23.2199 17.1801 23.0735 17.18 22.9257C17.18 20.0649 14.8515 17.7366 11.9894 17.7366Z" fill="#DD3E14"/>
<path d="M50.7743 24.5808C51.8379 25.9374 53.1509 27.0695 54.9845 27.0695C56.2291 27.0695 57.1115 26.3461 57.1115 25.0776C57.1115 23.653 56.0703 23.1316 54.3048 22.3175C51.8832 21.2097 50.4798 19.8518 50.4798 17.7025C50.4798 14.9651 52.743 13.3589 55.2326 13.3589C57.27 13.3589 58.4922 13.947 59.1706 14.5571L59.2843 17.9282H58.9902C57.9039 16.7534 56.6817 15.9833 55.301 15.9833C54.1464 15.9833 53.354 16.48 53.354 17.5668C53.354 18.585 54.3271 19.1507 56.5676 20.1919C58.8317 21.233 60.3252 22.4995 60.3252 25.0109C60.3252 27.861 58.2431 29.8303 55.1422 29.8303C52.9925 29.8303 51.3393 29.1062 50.3665 28.291L50.5472 24.5815H50.7743V24.5808ZM73.5439 23.9241C73.5439 27.6796 71.0543 29.8299 67.9991 29.8299C66.4366 29.8299 65.2603 29.3775 64.4453 28.4504V34.6263H61.4581V18.3366H64.4453V19.5131C65.2377 18.6306 66.3916 18.0196 68.0441 18.0196C71.2124 18.0196 73.5439 20.4626 73.5439 23.9241ZM64.3092 23.9241C64.3092 25.7343 65.5768 27.0695 67.4328 27.0695C69.289 27.0695 70.5564 25.7343 70.5564 23.9241C70.5564 22.1145 69.289 20.7796 67.4328 20.7796C65.5772 20.7796 64.3092 22.1145 64.3092 23.9241ZM85.0647 25.8257L84.952 28.6534C83.5033 29.4902 82.0095 29.8299 80.5161 29.8299C77.1207 29.8299 74.45 27.2286 74.45 23.8344C74.45 20.5539 76.9849 18.0196 80.2209 18.0196C84.0238 18.0196 85.8801 20.8253 85.8801 23.8344V24.7165H77.3014C77.6413 26.4131 78.977 27.2952 80.7192 27.2952C82.0775 27.2952 83.4129 26.9785 84.7482 25.8257H85.0647ZM77.3695 22.6802H82.8923C82.7339 21.2994 81.6476 20.3269 80.2213 20.3269C78.9083 20.3269 77.7773 21.164 77.3695 22.6802ZM86.7852 23.9241C86.7852 20.6666 89.2748 18.0196 92.3981 18.0196C93.8698 18.0196 95.1148 18.562 95.7481 19.3548V18.3366H98.7353V29.5129H95.7481V28.4947C94.933 29.2645 94.0052 29.8299 92.2177 29.8299C89.5463 29.8299 86.7852 27.6123 86.7852 23.9241ZM95.8839 23.9241C95.8839 22.2045 94.7293 20.7796 92.8283 20.7796C90.9267 20.7796 89.7731 22.2045 89.7731 23.9241C89.7731 25.6447 90.9264 27.0695 92.8283 27.0695C94.7293 27.0695 95.8839 25.6447 95.8839 23.9241ZM100.184 13.2229H103.172V22.9286L107.065 18.3363H110.618L106.227 23.517L110.935 29.5129H107.11L103.172 24.3321V29.5129H100.184V13.2229ZM124.313 23.223C124.313 27.2726 121.981 29.8299 117.952 29.8299C113.923 29.8299 111.592 27.2726 111.592 23.223V13.6756H114.806V23.494C114.806 26.3001 116.345 27.1152 117.952 27.1152C119.56 27.1152 121.099 26.3001 121.099 23.494V13.6756H124.313V23.223H124.313ZM137.575 23.9241C137.575 27.6796 135.085 29.8299 132.03 29.8299C130.468 29.8299 129.291 29.3775 128.476 28.4504V34.6263H125.488V18.3366H128.476V19.5131C129.268 18.6306 130.424 18.0196 132.075 18.0196C135.243 18.0196 137.575 20.4626 137.575 23.9241ZM128.341 23.9241C128.341 25.7343 129.609 27.0695 131.464 27.0695C133.321 27.0695 134.588 25.7343 134.588 23.9241C134.588 22.1145 133.321 20.7796 131.464 20.7796C129.609 20.7796 128.341 22.1145 128.341 23.9241ZM145.293 13.6743L152.31 29.5126H149.187L148.01 26.7978H141.627L140.45 29.5126H137.327L144.343 13.6743H145.293ZM142.759 24.0824H146.879L144.818 19.2864L142.759 24.0824ZM152.288 18.3366H153.534V17.1141C153.534 14.3984 155.547 13.3585 157.244 13.3585C158.104 13.3585 158.626 13.5169 159.214 13.834L159.327 16.4583H159.056C158.649 16.0513 158.06 15.8699 157.653 15.8699C156.973 15.8699 156.521 16.3 156.521 17.0681V18.3363H158.332V20.8696H156.521V29.5126H153.534V20.8696H152.288V18.3366ZM167.09 21.6851C166.638 21.1423 165.891 20.78 165.122 20.78C163.831 20.78 162.633 21.5724 162.633 23.427V29.5129H159.645V18.3366H162.633V19.4448C163.334 18.541 164.419 18.0196 165.506 18.0196C166.367 18.0196 166.842 18.2009 167.318 18.541L167.521 21.6851H167.09ZM170.169 13.0415C171.21 13.0415 172.07 13.9013 172.07 14.9421C172.07 15.9603 171.21 16.797 170.169 16.797C169.151 16.797 168.313 15.9603 168.313 14.9421C168.312 13.9016 169.151 13.0415 170.169 13.0415ZM168.675 18.3366H171.663V29.5129H168.675V18.3366ZM182.007 28.9475C181.169 29.5586 180.128 29.8299 178.747 29.8299C175.579 29.8299 172.681 27.6566 172.681 23.9241C172.681 20.1912 175.579 18.0196 178.747 18.0196C180.129 18.0196 181.17 18.2909 182.007 18.902L182.119 22.0468H181.802C180.784 21.1643 179.857 20.78 178.747 20.78C176.868 20.78 175.669 22.1135 175.669 23.9244C175.669 25.735 176.869 27.0702 178.747 27.0702C179.857 27.0702 180.784 26.6848 181.802 25.8033H182.119L182.007 28.9475ZM183.16 23.9241C183.16 20.6666 185.65 18.0196 188.774 18.0196C190.244 18.0196 191.49 18.562 192.124 19.3548V18.3366H195.111V29.5129H192.124V28.4947C191.308 29.2645 190.381 29.8299 188.593 29.8299C185.922 29.8299 183.16 27.6123 183.16 23.9241ZM192.259 23.9241C192.259 22.2045 191.105 20.7796 189.204 20.7796C187.302 20.7796 186.149 22.2045 186.149 23.9241C186.149 25.6447 187.302 27.0695 189.204 27.0695C191.105 27.0695 192.259 25.6447 192.259 23.9241ZM198.235 26.3458C198.703 26.3461 199.152 26.5322 199.483 26.8631C199.814 27.194 200 27.6427 200 28.1107C200 29.0602 199.209 29.8299 198.235 29.8299C198.009 29.8301 197.785 29.7858 197.576 29.6994C197.368 29.6131 197.178 29.4865 197.018 29.3268C196.858 29.1671 196.732 28.9775 196.645 28.7688C196.559 28.5602 196.514 28.3365 196.515 28.1107C196.515 27.1369 197.283 26.3458 198.235 26.3458Z" fill="black"/>
</svg>
