<svg width="1440" height="127" viewBox="0 0 1440 127" fill="none" xmlns="http://www.w3.org/2000/svg">
<path d="M0 40.0269L30.08 34.7469C60.32 29.3069 120.48 18.7469 180.48 17.6269C240.48 16.5069 300.32 25.1469 360.32 27.5469C420.32 29.9469 480.48 26.1069 540.48 19.2269C600.48 12.3469 660.32 2.10694 720.32 0.346941C780.32 -1.57306 840.48 4.8269 900.48 10.9069C960.48 17.1469 1020.32 22.9069 1080.32 25.9469C1140.32 28.8269 1200.48 28.8269 1260.48 30.7469C1320.48 32.5069 1380.32 36.3469 1410.08 38.1069L1440 40.0269V126.427H1410.08C1380.32 126.427 1320.48 126.427 1260.48 126.427C1200.48 126.427 1140.32 126.427 1080.32 126.427C1020.32 126.427 960.48 126.427 900.48 126.427C840.48 126.427 780.32 126.427 720.32 126.427C660.32 126.427 600.48 126.427 540.48 126.427C480.48 126.427 420.32 126.427 360.32 126.427C300.32 126.427 240.48 126.427 180.48 126.427C120.48 126.427 60.32 126.427 30.08 126.427H0V40.0269Z" fill="url(#paint0_linear_2127_332)"/>
<defs>
<linearGradient id="paint0_linear_2127_332" x1="720" y1="0" x2="720" y2="126.427" gradientUnits="userSpaceOnUse">
<stop stop-color="#E4AD84"/>
<stop offset="1" stop-color="#D7803F" stop-opacity="0"/>
</linearGradient>
</defs>
</svg>
