<svg width="1440" height="84" viewBox="0 0 1440 84" fill="none" xmlns="http://www.w3.org/2000/svg">
<path d="M0 65.6L30.08 62.72C60.32 59.68 120.48 53.92 180.48 42.72C240.48 31.52 300.32 14.88 360.32 14.4C420.32 13.92 480.48 29.28 540.48 32C600.48 34.72 660.32 24.48 720.32 25.92C780.32 27.2 840.48 40 900.48 42.08C960.48 44.32 1020.32 35.68 1080.32 26.88C1140.32 18.08 1200.48 9.11998 1260.48 4.47998C1320.48 -1.9455e-05 1380.32 0 1410.08 0H1440V83.2H1410.08C1380.32 83.2 1320.48 83.2 1260.48 83.2C1200.48 83.2 1140.32 83.2 1080.32 83.2C1020.32 83.2 960.48 83.2 900.48 83.2C840.48 83.2 780.32 83.2 720.32 83.2C660.32 83.2 600.48 83.2 540.48 83.2C480.48 83.2 420.32 83.2 360.32 83.2C300.32 83.2 240.48 83.2 180.48 83.2C120.48 83.2 60.32 83.2 30.08 83.2H0V65.6Z" fill="#E4AD84"/>
</svg>
